<svg id="Layer_1" data-name="Layer 1" xmlns="http://www.w3.org/2000/svg" viewBox="0 0 500 500"><defs><style>.cls-1{fill:#69a0ef;}.cls-2{fill:#1565c0;}</style></defs><title>department-icon</title><circle class="cls-1" cx="212.37" cy="154.01" r="96.82"/><path class="cls-1" d="M358.76,450H66A16,16,0,0,1,50.1,432.15a162.55,162.55,0,0,1,35.37-84.84q4.21-5.18,8.85-10a163.09,163.09,0,0,1,236.1,0q4.64,4.83,8.85,10a162.55,162.55,0,0,1,35.37,84.84A16,16,0,0,1,358.76,450Z"/><path class="cls-2" d="M443.93,263.41l6-24.18a2,2,0,0,0-1.95-2.48l-13.5,0a20,20,0,0,0-10.25,2.86L319,303l-2.25-3.73a6.72,6.72,0,0,0-9.23-2.29l-.32.19a6.72,6.72,0,0,0-2.29,9.23l1.54,2.56-6,3.63A62,62,0,1,0,323,350.74l6.37-3.84,2.09,3.46a6.72,6.72,0,0,0,9.22,2.29h0a6.72,6.72,0,0,0,2.29-9.23l-2.88-4.79,18.63-11.21,4.35-10.2,6.22-.18,5.56-11.46,8.25-5L391,301a3,3,0,0,0,2.73-1.45l6-7.38,12.7.73,4.46-8.36,8.84.55,6.82-14.19,7.71.77,2-7.23ZM258.1,379.22a18.21,18.21,0,1,1-13.28-22.07A18.21,18.21,0,0,1,258.1,379.22Z"/></svg>