<svg id="Hex" xmlns="http://www.w3.org/2000/svg" viewBox="94 -4 800 800"><style>.st0{fill:#394659;}</style><path class="st0" d="M752.2 35c-25.7 0-50.3 14.4-62.2 39.1-.4.7-2.7 5.5-2.7 5.5l18.9 9.1 2.7-5.6c8-16.6 25-27.2 43.4-27.2V35h-.1zm-89.1 95s-22.5 46.7-32.1 66.6v.1c0 .1-.1.1-.1.2 0 0 0 .1-.1.1v.1c-.1.1-.1.2-.1.3 0 .1-.1.2-.1.2l-.1.1-.1.1-.1.1-.1.2v.1l-3.3 6.8 18.9 9.1 36.3-75.4-19-8.7zm-60.6 125.7s-7 14.5-14.8 30.7c0 .1-.1.1-.1.2l-.1.2-.2.3-.1.1s0 .1-.1.1l-21 43.6L585 340l36.3-75.4-18.8-8.9zm97.3 67.9L663.5 399l18.9 9.1 22.7-47.1.1-.2v-.1l.1-.1v-.1l.3-.5s0-.1.1-.1v-.1c0-.1.1-.1.1-.2 7.1-14.7 13-27 13-27l-19-9zm60.6-125.7l-36.3 75.4 18.9 9.1 36.3-75.4-18.9-9.1zm55.4-120.7l-19.3 8.1c5.4 12.7 5 27.1-1 39.6l-10.9 22.7 18.9 9.1 10.7-22.2v-.1c0-.1.1-.1.1-.2.1-.2.1-.3.1-.3v-.1s0-.1.1-.1v-.1c0-.1 0-.1.1-.2v-.1-.1c0-.1.1-.2.1-.3v-.1-.1c.1-.1.1-.3.2-.4v-.1-.1-.1-.1c.1-.1.1-.3.2-.4v-.1-.1-.1c2.7-6.5 4.3-13.1 4.9-19.8 0-.2 0-.4.1-.6v-.1-.1-.4-.1-.3-.2-.1-.1-.1-.2-.1-.1-.2-.3-.1-.4-.1-.1-.6c-.1-6.2-1.1-12.3-2.8-18.2 0-.1-.1-.3-.1-.4 0-.1 0-.2-.1-.2v-.1c0-.1-.1-.2-.1-.3v-.1c0-7.6-.6-9.1-1.2-10.6zM752.2 35v20.9c5.8 0 11.5 1.1 17 3.1l7.5-19.6c-2.4-.9-4.9-1.7-7.3-2.3H769.1h-.1-.1-.1-.1-.1-.1-.1-.1-.1H767.9h-.7c-2.4-.5-4.8-.8-7.2-1.1h-1.2-.1-.1-.1-.1-.1-.1-.1-.1-.1-.1-.1-.1-.1-.1-.1-.1-.1-.1c-4.7-1-4.7-1-4.8-1 .1 0 .1 0 0 0 .1 0 .1 0 0 0z"/><path class="st0" d="M514.4 757L198 550.4c-31.9-20.9-40.9-63.6-20-95.6 20.8-31.9 63.6-40.9 95.5-20l184.7 120.6 126-261.5 79.3 155.4L514.4 757z"/></svg>